PathFileType	4	(x/y/z)	S04_M20_T12.trc
DataRate	CameraRate	NumFrames	NumMarkers	Units	OrigDataRate	OrigDataStartFrame	OrigNumFrames
240	240	4	51	mm	240	1	535
Frame#	Time	Sternum			R.Acromium			L.Acromium			Top.Head			R.ASIS			L.ASIS			R.PSIS			L.PSIS			R.Great.Tro			L.Great.Tro			R.Iliac.Crest			L.Iliac.Crest			V.Sacral			R.Thigh.Upper.Post			R.Thigh.Lower.Ant			R.Thigh.Lower.Post			R.Thigh.Upper.Ant			R.Knee.Lat			R.Knee.Med			R.Shank.Upper.Post			R.Shank.Lower.Ant			R.Shank.Lower.Post			R.Shank.Upper.Ant			R.Ankle.Lat			R.Ankle.Med			R.Heel.Upper			R.Heel.Med			R.Heel.Lat			R.Toe.Lat			R.Toe.Med			R.Toe.Tip			L.Thigh.Upper.Post			L.Thigh.Lower.Ant			L.Thigh.Lower.Post			L.Thigh.Upper.Ant			L.Knee.Lat			L.Knee.Med			L.Shank.Upper.Post			L.Shank.Lower.Ant			L.Shank.Lower.Post			L.Shank.Upper.Ant			L.Ankle.Lat			L.Ankle.Med			L.Heel.Upper			L.Heel.Med			L.Heel.Lat			L.Toe.Lat			L.Toe.Med			L.Toe.Tip			Cervical.Spine			Back			
		X1	Y1	Z1	X2	Y2	Z2	X3	Y3	Z3	X4	Y4	Z4	X5	Y5	Z5	X6	Y6	Z6	X7	Y7	Z7	X8	Y8	Z8	X9	Y9	Z9	X10	Y10	Z10	X11	Y11	Z11	X12	Y12	Z12	X13	Y13	Z13	X14	Y14	Z14	X15	Y15	Z15	X16	Y16	Z16	X17	Y17	Z17	X18	Y18	Z18	X19	Y19	Z19	X20	Y20	Z20	X21	Y21	Z21	X22	Y22	Z22	X23	Y23	Z23	X24	Y24	Z24	X25	Y25	Z25	X26	Y26	Z26	X27	Y27	Z27	X28	Y28	Z28	X29	Y29	Z29	X30	Y30	Z30	X31	Y31	Z31	X32	Y32	Z32	X33	Y33	Z33	X34	Y34	Z34	X35	Y35	Z35	X36	Y36	Z36	X37	Y37	Z37	X38	Y38	Z38	X39	Y39	Z39	X40	Y40	Z40	X41	Y41	Z41	X42	Y42	Z42	X43	Y43	Z43	X44	Y44	Z44	X45	Y45	Z45	X46	Y46	Z46	X47	Y47	Z47	X48	Y48	Z48	X49	Y49	Z49	X50	Y50	Z50	X51	Y51	Z51	

1	0	-832.45	1247.8	306.74	-950.26	1480.3	481.33	-963.05	1465.1	131.52	-940.58	1804.3	288.41	-880.81	967.39	455.44	-850.12	982.1	204.02	-1079.3	1013.5	324.56	-1062.1	1014.1	246.27	-989.64	899.17	504.29	-953.3	899.39	122.25	-973.3	1061.4	486.94	-951.03	1062.9	141.23	-1092.5	972.4	285.53	-1062.4	655.64	484.21	-1012.3	555.53	451.23	-1086.7	569.24	471.61	-973.45	657.99	474.12	-1088.3	496.38	461.86	-1110.5	500.78	325.86	-1230.8	302.44	447.55	-1189.9	210.1	402.94	-1251.3	237.33	428.01	-1171.4	276.3	430.9	-1272.4	124.97	405.12	-1258.4	137.63	315.72	-1348.1	104.95	352.73	-1344.6	71.861	323.92	-1349.3	76.354	387.74	-1178.2	41.765	431	-1147.9	37.58	310.07	-1080.9	43.875	354.34	-885.13	660.21	130.97	-770.63	607.48	133.91	-839.04	584.25	145.1	-822.79	680.57	117.51	-760.55	521.46	147.99	-745.87	510.9	277.64	-749.15	324.42	151.46	-647.55	283.67	144.03	-704.78	260.18	156.09	-690.66	347.04	138.25	-577.51	141.19	157.22	-573.91	155.02	249.96	-621.52	69.837	210.38	-598.58	55.75	242.83	-603.13	48.847	182.1	-449.45	145.88	131.51	-423.69	177.46	242.18	-388.72	217.47	190.37	-1004.4	1526.7	311.9	-1090.7	1271.5	291.89
2	0.0041667	-827.53	1247.1	306.3	-945.28	1479.7	480.67	-958	1464.3	130.83	-935.57	1803.6	287.41	-876.23	966.7	455.14	-845.17	981.42	203.74	-1074.4	1012.9	323.89	-1057.2	1013.5	245.6	-985.2	898.65	503.8	-948.32	898.73	121.71	-968.64	1060.8	486.4	-946.09	1062.1	140.75	-1087.7	971.74	284.84	-1058.5	655.38	483.91	-1008.7	555.12	451.12	-1083.1	569.06	471.33	-969.58	657.49	473.99	-1084.9	496.16	461.65	-1106.9	500.55	325.68	-1228.6	303.12	447.51	-1188.4	210.49	402.93	-1249.7	238.17	427.97	-1169.5	276.57	430.84	-1271.5	125.91	405.2	-1257.5	138.48	315.78	-1347.4	106.41	352.86	-1344.1	73.399	324	-1348.9	77.81	387.86	-1178	41.881	431.03	-1147.8	37.668	310.07	-1080.7	43.708	354.3	-880.07	659.64	130.56	-765.59	606.91	133.85	-834.02	583.67	144.77	-817.62	680.02	117.3	-755.62	520.82	147.75	-741.16	510.26	277.4	-744.37	323.67	151.23	-642.7	282.93	143.82	-700.03	259.43	155.93	-685.8	346.3	138	-572.46	140.4	157.1	-569.1	154.32	249.82	-616.51	68.928	210.26	-593.5	54.914	242.77	-598	48.002	181.91	-444.69	145.51	131.26	-418.96	177.18	241.95	-384.14	217.27	190.09	-999.4	1526.1	311.16	-1085.8	1270.9	291.25
3	0.0083333	-822.39	1246.3	305.82	-940.07	1479.2	479.98	-952.73	1463.5	130.1	-930.35	1802.9	286.35	-871.43	965.99	454.82	-839.99	980.72	203.44	-1069.4	1012.2	323.18	-1052	1012.8	244.91	-980.56	898.11	503.28	-943.11	898.05	121.15	-963.75	1060.2	485.84	-940.93	1061.3	140.24	-1082.6	971.06	284.12	-1054.5	655.12	483.59	-1004.9	554.69	451	-1079.3	568.86	471.04	-965.52	656.96	473.85	-1081.4	495.92	461.43	-1103.1	500.3	325.49	-1226.3	303.84	447.47	-1186.9	210.9	402.92	-1247.9	239.05	427.94	-1167.4	276.85	430.78	-1270.6	126.91	405.28	-1256.5	139.38	315.86	-1346.7	107.96	353.01	-1343.6	75.023	324.07	-1348.5	79.357	387.99	-1177.8	42.005	431.06	-1147.6	37.757	310.06	-1080.6	43.538	354.25	-874.75	659.06	130.15	-760.29	606.34	133.78	-828.74	583.08	144.42	-812.21	679.46	117.07	-750.45	520.17	147.52	-736.23	509.6	277.15	-739.43	322.9	150.99	-637.72	282.11	143.61	-695.15	258.63	155.76	-680.78	345.51	137.75	-567.35	139.52	157	-564.23	153.53	249.69	-611.46	67.946	210.14	-588.39	53.995	242.72	-592.85	47.075	181.72	-439.87	145.01	131.04	-414.15	176.75	241.73	-379.48	216.93	189.84	-994.14	1525.4	310.38	-1080.7	1270.3	290.59
4	0.0125	-817.06	1245.5	305.31	-934.68	1478.6	479.26	-947.28	1462.7	129.33	-924.95	1802.2	285.26	-866.44	965.26	454.47	-834.62	980	203.12	-1064.2	1011.5	322.46	-1046.7	1012.1	244.2	-975.72	897.56	502.74	-937.7	897.36	120.56	-958.66	1059.6	485.25	-935.59	1060.5	139.71	-1077.2	970.35	283.37	-1050.2	654.85	483.25	-1000.9	554.26	450.86	-1075.3	568.66	470.72	-961.29	656.42	473.68	-1077.6	495.68	461.19	-1099.1	500.05	325.28	-1224	304.6	447.42	-1185.2	211.33	402.91	-1246.1	239.98	427.9	-1165.3	277.16	430.72	-1269.6	127.96	405.36	-1255.5	140.33	315.93	-1345.9	109.59	353.16	-1343	76.731	324.16	-1348	80.99	388.13	-1177.5	42.137	431.1	-1147.5	37.848	310.06	-1080.4	43.37	354.2	-869.22	658.47	129.72	-754.77	605.77	133.7	-823.24	582.48	144.06	-806.57	678.9	116.84	-745.07	519.49	147.27	-731.09	508.94	276.89	-734.37	322.11	150.75	-632.66	281.22	143.41	-690.2	257.78	155.6	-675.63	344.66	137.51	-562.24	138.55	156.92	-559.36	152.62	249.58	-606.44	66.894	210.04	-583.31	52.991	242.67	-587.73	46.063	181.55	-435.04	144.36	130.84	-409.33	176.16	241.55	-374.79	216.4	189.62	-988.71	1524.7	309.58	-1075.5	1269.7	289.91
